<svg width="308" height="104" viewBox="0 0 308 104" fill="none" xmlns="http://www.w3.org/2000/svg">
<g filter="url(#filter0_ddi_0_577)">
<rect x="19" y="19" width="270" height="66" rx="33" fill="#B13957"/>
</g>
<path d="M91.025 59C90.8783 59 90.7583 58.9533 90.665 58.86C90.5717 58.7667 90.525 58.6467 90.525 58.5V45.5C90.525 45.3533 90.5717 45.2333 90.665 45.14C90.7717 45.0467 90.8917 45 91.025 45H93.605C93.7517 45 93.8717 45.0467 93.965 45.14C94.0717 45.2333 94.125 45.3533 94.125 45.5V50.32H99.045V45.5C99.045 45.3533 99.0917 45.2333 99.185 45.14C99.2783 45.0467 99.3983 45 99.545 45H102.125C102.272 45 102.392 45.0467 102.485 45.14C102.578 45.2333 102.625 45.3533 102.625 45.5V58.5C102.625 58.6467 102.578 58.7667 102.485 58.86C102.392 58.9533 102.272 59 102.125 59H99.545C99.3983 59 99.2783 58.9533 99.185 58.86C99.0917 58.7667 99.045 58.6467 99.045 58.5V53.52H94.125V58.5C94.125 58.6467 94.0717 58.7667 93.965 58.86C93.8717 58.9533 93.7517 59 93.605 59H91.025ZM108.327 59.2C107.621 59.2 106.974 59.0667 106.387 58.8C105.814 58.52 105.361 58.1467 105.027 57.68C104.707 57.2 104.547 56.6733 104.547 56.1C104.547 55.18 104.921 54.44 105.667 53.88C106.427 53.32 107.467 52.9333 108.787 52.72L111.287 52.34V52.06C111.287 51.5533 111.181 51.18 110.967 50.94C110.754 50.7 110.394 50.58 109.887 50.58C109.581 50.58 109.327 50.6333 109.127 50.74C108.927 50.8467 108.721 50.9933 108.507 51.18C108.321 51.34 108.181 51.4467 108.087 51.5C108.047 51.6067 107.974 51.66 107.867 51.66H105.687C105.554 51.66 105.441 51.62 105.347 51.54C105.267 51.4467 105.234 51.34 105.247 51.22C105.261 50.86 105.434 50.46 105.767 50.02C106.114 49.58 106.634 49.2 107.327 48.88C108.034 48.56 108.901 48.4 109.927 48.4C111.567 48.4 112.781 48.7667 113.567 49.5C114.354 50.22 114.747 51.1933 114.747 52.42V58.5C114.747 58.6333 114.701 58.7533 114.607 58.86C114.514 58.9533 114.394 59 114.247 59H111.927C111.794 59 111.674 58.9533 111.567 58.86C111.474 58.7533 111.427 58.6333 111.427 58.5V57.8C111.134 58.2133 110.721 58.5533 110.187 58.82C109.667 59.0733 109.047 59.2 108.327 59.2ZM109.267 56.92C109.881 56.92 110.374 56.72 110.747 56.32C111.134 55.92 111.327 55.3333 111.327 54.56V54.28L109.627 54.58C108.427 54.7933 107.827 55.2133 107.827 55.84C107.827 56.1733 107.967 56.44 108.247 56.64C108.527 56.8267 108.867 56.92 109.267 56.92ZM127.104 48.6C127.238 48.6 127.351 48.6467 127.444 48.74C127.538 48.8333 127.584 48.9467 127.584 49.08V58.5C127.584 58.6333 127.538 58.7533 127.444 58.86C127.351 58.9533 127.231 59 127.084 59H124.724C124.591 59 124.471 58.9533 124.364 58.86C124.271 58.7533 124.224 58.6333 124.224 58.5V52.9L120.164 58.68C120.018 58.8933 119.831 59 119.604 59H117.484C117.351 59 117.238 58.9533 117.144 58.86C117.051 58.7667 117.004 58.6533 117.004 58.52V49.1C117.004 48.9533 117.051 48.8333 117.144 48.74C117.238 48.6467 117.358 48.6 117.504 48.6H119.864C120.011 48.6 120.131 48.6467 120.224 48.74C120.318 48.8333 120.364 48.9533 120.364 49.1V54.68L124.404 48.92C124.551 48.7067 124.738 48.6 124.964 48.6H127.104ZM122.484 47.24C121.284 47.24 120.398 46.98 119.824 46.46C119.251 45.9267 118.964 45.2333 118.964 44.38C118.964 44.2733 118.998 44.1867 119.064 44.12C119.131 44.04 119.224 44 119.344 44H120.944C121.064 44 121.158 44.04 121.224 44.12C121.291 44.1867 121.324 44.2733 121.324 44.38C121.324 45.0867 121.711 45.44 122.484 45.44C123.244 45.44 123.624 45.0867 123.624 44.38C123.624 44.2733 123.658 44.1867 123.724 44.12C123.791 44.04 123.884 44 124.004 44H125.604C125.724 44 125.818 44.04 125.884 44.12C125.951 44.1867 125.984 44.2733 125.984 44.38C125.984 45.2333 125.698 45.9267 125.124 46.46C124.551 46.98 123.671 47.24 122.484 47.24ZM132.898 59C132.765 59 132.645 58.9533 132.538 58.86C132.445 58.7533 132.398 58.6333 132.398 58.5V51.22H129.358C129.225 51.22 129.105 51.1733 128.998 51.08C128.905 50.9733 128.858 50.8533 128.858 50.72V49.1C128.858 48.9533 128.905 48.8333 128.998 48.74C129.105 48.6467 129.225 48.6 129.358 48.6H138.758C138.905 48.6 139.025 48.6467 139.118 48.74C139.211 48.8333 139.258 48.9533 139.258 49.1V50.72C139.258 50.8533 139.211 50.9733 139.118 51.08C139.025 51.1733 138.905 51.22 138.758 51.22H135.718V58.5C135.718 58.6333 135.671 58.7533 135.578 58.86C135.485 58.9533 135.365 59 135.218 59H132.898ZM150.815 48.6C150.948 48.6 151.062 48.6467 151.155 48.74C151.248 48.8333 151.295 48.9467 151.295 49.08V58.5C151.295 58.6333 151.248 58.7533 151.155 58.86C151.062 58.9533 150.942 59 150.795 59H148.435C148.302 59 148.182 58.9533 148.075 58.86C147.982 58.7533 147.935 58.6333 147.935 58.5V52.9L143.875 58.68C143.728 58.8933 143.542 59 143.315 59H141.195C141.062 59 140.948 58.9533 140.855 58.86C140.762 58.7667 140.715 58.6533 140.715 58.52V49.1C140.715 48.9533 140.762 48.8333 140.855 48.74C140.948 48.6467 141.068 48.6 141.215 48.6H143.575C143.722 48.6 143.842 48.6467 143.935 48.74C144.028 48.8333 144.075 48.9533 144.075 49.1V54.68L148.115 48.92C148.262 48.7067 148.448 48.6 148.675 48.6H150.815ZM169.367 48.6C169.474 48.6 169.567 48.64 169.647 48.72C169.727 48.8 169.767 48.8933 169.767 49V58.58C169.767 58.7 169.727 58.8 169.647 58.88C169.567 58.96 169.467 59 169.347 59H166.867C166.747 59 166.647 58.96 166.567 58.88C166.487 58.8 166.447 58.7 166.447 58.58V54L164.727 57C164.647 57.1467 164.56 57.26 164.467 57.34C164.387 57.4067 164.28 57.44 164.147 57.44H163.347C163.214 57.44 163.1 57.4067 163.007 57.34C162.914 57.26 162.82 57.1467 162.727 57L161.027 54.02V58.58C161.027 58.7 160.987 58.8 160.907 58.88C160.827 58.96 160.727 59 160.607 59H158.127C158.02 59 157.927 58.96 157.847 58.88C157.767 58.8 157.727 58.7 157.727 58.58V49C157.727 48.8933 157.767 48.8 157.847 48.72C157.927 48.64 158.02 48.6 158.127 48.6H160.427C160.667 48.6 160.86 48.72 161.007 48.96L163.747 53.82L166.467 48.96C166.614 48.72 166.807 48.6 167.047 48.6H169.367ZM177 59.2C175.4 59.2 174.14 58.7667 173.22 57.9C172.3 57.0333 171.82 55.7733 171.78 54.12V53.42C171.833 51.8467 172.32 50.62 173.24 49.74C174.173 48.8467 175.42 48.4 176.98 48.4C178.113 48.4 179.066 48.6333 179.84 49.1C180.626 49.5533 181.213 50.18 181.6 50.98C182 51.78 182.2 52.7 182.2 53.74V54.22C182.2 54.3533 182.153 54.4733 182.06 54.58C181.966 54.6733 181.846 54.72 181.7 54.72H175.3V54.86C175.326 55.4867 175.48 55.9933 175.76 56.38C176.04 56.7667 176.446 56.96 176.98 56.96C177.313 56.96 177.586 56.8933 177.8 56.76C178.013 56.6133 178.206 56.44 178.38 56.24C178.5 56.0933 178.593 56.0067 178.66 55.98C178.74 55.94 178.86 55.92 179.02 55.92H181.5C181.62 55.92 181.72 55.96 181.8 56.04C181.893 56.1067 181.94 56.2 181.94 56.32C181.94 56.6667 181.74 57.0667 181.34 57.52C180.953 57.9733 180.386 58.3667 179.64 58.7C178.893 59.0333 178.013 59.2 177 59.2ZM178.68 52.74V52.7C178.68 52.0467 178.526 51.5333 178.22 51.16C177.926 50.7733 177.513 50.58 176.98 50.58C176.46 50.58 176.046 50.7733 175.74 51.16C175.446 51.5333 175.3 52.0467 175.3 52.7V52.74H178.68ZM188.855 59.2C187.348 59.2 186.128 58.8 185.195 58C184.261 57.1867 183.761 56.06 183.695 54.62L183.675 53.82L183.695 53C183.748 51.56 184.241 50.4333 185.175 49.62C186.121 48.8067 187.348 48.4 188.855 48.4C189.988 48.4 190.941 48.6067 191.715 49.02C192.501 49.42 193.081 49.9067 193.455 50.48C193.841 51.04 194.048 51.5533 194.075 52.02C194.088 52.1533 194.041 52.2733 193.935 52.38C193.841 52.4733 193.721 52.52 193.575 52.52H191.035C190.888 52.52 190.775 52.4867 190.695 52.42C190.615 52.3533 190.541 52.2533 190.475 52.12C190.315 51.7067 190.108 51.4133 189.855 51.24C189.615 51.0667 189.301 50.98 188.915 50.98C187.821 50.98 187.255 51.6867 187.215 53.1L187.195 53.86L187.215 54.52C187.241 55.24 187.395 55.7733 187.675 56.12C187.968 56.4533 188.381 56.62 188.915 56.62C189.328 56.62 189.655 56.5333 189.895 56.36C190.135 56.1867 190.328 55.8933 190.475 55.48C190.541 55.3467 190.615 55.2467 190.695 55.18C190.775 55.1133 190.888 55.08 191.035 55.08H193.575C193.708 55.08 193.821 55.1267 193.915 55.22C194.021 55.3 194.075 55.4067 194.075 55.54C194.075 55.9667 193.888 56.4667 193.515 57.04C193.155 57.6133 192.581 58.12 191.795 58.56C191.008 58.9867 190.028 59.2 188.855 59.2ZM199.011 59C198.878 59 198.758 58.9533 198.651 58.86C198.558 58.7533 198.511 58.6333 198.511 58.5V51.22H195.471C195.338 51.22 195.218 51.1733 195.111 51.08C195.018 50.9733 194.971 50.8533 194.971 50.72V49.1C194.971 48.9533 195.018 48.8333 195.111 48.74C195.218 48.6467 195.338 48.6 195.471 48.6H204.871C205.018 48.6 205.138 48.6467 205.231 48.74C205.325 48.8333 205.371 48.9533 205.371 49.1V50.72C205.371 50.8533 205.325 50.9733 205.231 51.08C205.138 51.1733 205.018 51.22 204.871 51.22H201.831V58.5C201.831 58.6333 201.785 58.7533 201.691 58.86C201.598 58.9533 201.478 59 201.331 59H199.011ZM211.748 59.2C210.095 59.2 208.822 58.8067 207.928 58.02C207.035 57.2333 206.548 56.1267 206.468 54.7C206.455 54.5267 206.448 54.2267 206.448 53.8C206.448 53.3733 206.455 53.0733 206.468 52.9C206.548 51.4867 207.048 50.3867 207.968 49.6C208.888 48.8 210.148 48.4 211.748 48.4C213.362 48.4 214.628 48.8 215.548 49.6C216.468 50.3867 216.968 51.4867 217.048 52.9C217.062 53.0733 217.068 53.3733 217.068 53.8C217.068 54.2267 217.062 54.5267 217.048 54.7C216.968 56.1267 216.482 57.2333 215.588 58.02C214.695 58.8067 213.415 59.2 211.748 59.2ZM211.748 56.76C212.335 56.76 212.768 56.5867 213.048 56.24C213.328 55.88 213.488 55.3333 213.528 54.6C213.542 54.4667 213.548 54.2 213.548 53.8C213.548 53.4 213.542 53.1333 213.528 53C213.488 52.28 213.322 51.74 213.028 51.38C212.748 51.02 212.322 50.84 211.748 50.84C210.642 50.84 210.055 51.56 209.988 53L209.968 53.8L209.988 54.6C210.015 55.3333 210.168 55.88 210.448 56.24C210.742 56.5867 211.175 56.76 211.748 56.76Z" fill="white"/>
<defs>
<filter id="filter0_ddi_0_577" x="0" y="0" width="308" height="104" filterUnits="userSpaceOnUse" color-interpolation-filters="sRGB">
<feFlood flood-opacity="0" result="BackgroundImageFix"/>
<feColorMatrix in="SourceAlpha" type="matrix" values="0 0 0 0 0 0 0 0 0 0 0 0 0 0 0 0 0 0 127 0" result="hardAlpha"/>
<feOffset dy="4"/>
<feColorMatrix type="matrix" values="0 0 0 0 0.475 0 0 0 0 0 0 0 0 0 0.11875 0 0 0 1 0"/>
<feBlend mode="normal" in2="BackgroundImageFix" result="effect1_dropShadow_0_577"/>
<feColorMatrix in="SourceAlpha" type="matrix" values="0 0 0 0 0 0 0 0 0 0 0 0 0 0 0 0 0 0 127 0" result="hardAlpha"/>
<feOffset/>
<feGaussianBlur stdDeviation="9.5"/>
<feColorMatrix type="matrix" values="0 0 0 0 0.694118 0 0 0 0 0.223529 0 0 0 0 0.341176 0 0 0 0.25 0"/>
<feBlend mode="normal" in2="effect1_dropShadow_0_577" result="effect2_dropShadow_0_577"/>
<feBlend mode="normal" in="SourceGraphic" in2="effect2_dropShadow_0_577" result="shape"/>
<feColorMatrix in="SourceAlpha" type="matrix" values="0 0 0 0 0 0 0 0 0 0 0 0 0 0 0 0 0 0 127 0" result="hardAlpha"/>
<feOffset dy="-1"/>
<feGaussianBlur stdDeviation="2"/>
<feComposite in2="hardAlpha" operator="arithmetic" k2="-1" k3="1"/>
<feColorMatrix type="matrix" values="0 0 0 0 0.658333 0 0 0 0 1 0 0 0 0 1 0 0 0 0.3 0"/>
<feBlend mode="normal" in2="shape" result="effect3_innerShadow_0_577"/>
</filter>
</defs>
</svg>
