<svg width="20" height="20" viewBox="0 0 20 20" fill="none" xmlns="http://www.w3.org/2000/svg">
<path d="M6.60194 16.7039H7.76699C7.76699 17.8835 8.72328 18.8398 9.90291 18.8398C11.0826 18.8398 12.0388 17.8835 12.0388 16.7039H13.2039C13.2039 18.527 11.726 20.0049 9.90291 20.0049C8.07984 20.0049 6.60194 18.527 6.60194 16.7039ZM19.8058 14.9557V15.3454C19.8058 16.0983 19.1975 16.7039 18.4461 16.7039H1.35976C0.608667 16.7039 0 16.096 0 15.3454V14.9557C0 13.6284 1.02679 12.5404 2.3301 12.4397V7.57741C2.3301 3.39411 5.72002 0.00488281 9.90291 0.00488281C14.0858 0.00488281 17.4757 3.39493 17.4757 7.57741V12.4396C18.7811 12.5401 19.8058 13.6271 19.8058 14.9557ZM17.278 13.5971C16.7438 13.5971 16.3107 13.1607 16.3107 12.629V7.57741C16.3107 4.03836 13.4424 1.16993 9.90291 1.16993C6.3634 1.16993 3.49515 4.0376 3.49515 7.57741V12.629C3.49515 13.1631 3.05979 13.5971 2.52785 13.5971C1.7751 13.5971 1.16505 14.2059 1.16505 14.9557V15.3454C1.16505 15.4522 1.25178 15.5389 1.35976 15.5389H18.4461C18.5552 15.5389 18.6408 15.4537 18.6408 15.3454V14.9557C18.6408 14.2044 18.0329 13.5971 17.278 13.5971Z" fill="#272727"/>
</svg>
