<svg width="29" height="24" viewBox="0 0 29 24" fill="none" xmlns="http://www.w3.org/2000/svg">
<path d="M11.234 0C8.60161 0.0484229 6.92003 1.11152 6.19809 2.76449C5.50917 4.33822 5.66324 6.32575 6.16288 8.38151C5.89435 8.69626 5.68085 9.11886 5.75789 9.75495C5.84153 10.4483 6.03301 10.9413 6.30374 11.2869C6.45341 11.4762 6.6493 11.4938 6.83199 11.5862C6.93103 12.1761 7.09611 12.766 7.34263 13.259C7.48349 13.5429 7.64417 13.8048 7.80044 14.0161C7.87087 14.1108 7.97212 14.1658 8.04696 14.245C8.05136 14.9406 8.05356 15.5194 7.99413 16.2524C7.81144 16.6948 7.38445 17.0514 6.69112 17.3969C5.97579 17.7535 5.04475 18.0836 4.10271 18.4886C3.16067 18.8936 2.19222 19.3866 1.42627 20.1614C0.660308 20.9362 0.118856 21.9993 0.0352164 23.4013L0 24H22.6089L22.5737 23.4013C22.5143 22.4263 22.2392 21.6185 21.8166 20.9538H28.2436L28.2084 20.3551C28.1357 19.1555 27.6669 18.2223 27.011 17.5554C26.3551 16.8885 25.5341 16.4725 24.7395 16.1291C23.945 15.7858 23.1658 15.5282 22.5737 15.2311C22.0015 14.945 21.6779 14.6566 21.5348 14.3155C21.4886 13.7234 21.4776 13.2414 21.482 12.6779C21.537 12.6163 21.6251 12.5723 21.6757 12.5018C21.81 12.3169 21.9442 12.0924 22.0631 11.8503C22.2634 11.4387 22.3999 10.9523 22.4857 10.4593C22.6332 10.3778 22.7894 10.3646 22.9083 10.2128C23.1504 9.90462 23.3111 9.48643 23.3837 8.89215V8.87454C23.4453 8.3595 23.2781 8.01394 23.0668 7.73001C23.3001 6.96625 23.5862 5.76229 23.4894 4.5077C23.4343 3.81658 23.2605 3.11886 22.8379 2.53558C22.4373 1.98092 21.7814 1.57373 20.9538 1.42627C20.4167 0.829787 19.5693 0.563463 18.5767 0.563463C17.2098 0.587674 16.1489 0.926632 15.372 1.53191C15.0176 1.31181 14.6038 1.15114 14.1394 1.05649C13.5473 0.288335 12.482 0 11.2516 0H11.234ZM11.2516 1.12693C11.2583 1.12693 11.2627 1.12693 11.2693 1.12693C12.4028 1.13133 13.1379 1.46368 13.347 1.83125L13.4879 2.06016L13.752 2.09538C14.5356 2.20323 14.9846 2.52018 15.3015 2.95818C15.6185 3.39619 15.7946 4.00807 15.8474 4.68379C15.953 6.03522 15.5635 7.60895 15.3191 8.3463L15.1783 8.7865L15.5657 9.01541C15.5415 9 15.7814 9.16288 15.7241 9.63169C15.6581 10.1842 15.526 10.4703 15.4248 10.6001C15.3236 10.73 15.2707 10.7234 15.2663 10.7234L14.7909 10.7586L14.7381 11.2164C14.6853 11.7051 14.4894 12.2993 14.2627 12.766C14.1482 12.9993 14.0315 13.204 13.9281 13.347C13.8247 13.4901 13.7146 13.5693 13.7696 13.5407L13.4703 13.6992V14.0337C13.4703 14.8503 13.4373 15.5194 13.5231 16.4637V16.5341L13.5583 16.6045C13.8797 17.4696 14.6236 18.0088 15.4424 18.4182C16.2612 18.8276 17.201 19.1291 18.0836 19.5099C18.8386 19.8357 19.5297 20.223 20.091 20.7073C20.0932 20.7095 20.0888 20.7227 20.091 20.7249C20.1174 20.7513 20.1482 20.7755 20.179 20.7953C20.2142 20.8371 20.2561 20.8723 20.3023 20.901C20.3045 20.9032 20.3177 20.8988 20.3199 20.901C20.3375 20.9186 20.3551 20.9362 20.3727 20.9538C20.8481 21.4358 21.1475 22.0741 21.3059 22.8731H1.30301C1.46148 22.0763 1.75862 21.4358 2.23624 20.9538C2.83712 20.3463 3.65591 19.8907 4.54292 19.5099C5.42993 19.1291 6.36317 18.8276 7.18415 18.4182C8.00514 18.0088 8.76449 17.4696 9.08584 16.6045L9.12106 16.4637C9.2069 15.5194 9.17388 14.8503 9.17388 14.0337V13.6992L8.87454 13.5407C8.92516 13.5671 8.80411 13.4901 8.69846 13.347C8.59281 13.204 8.46295 12.9993 8.34629 12.766C8.11299 12.2993 7.9215 11.6985 7.87087 11.2164L7.81805 10.7586L7.34263 10.7234C7.33822 10.7234 7.2854 10.73 7.18415 10.6001C7.08291 10.4703 6.95084 10.1842 6.88481 9.63169C6.82979 9.16288 7.0675 9 7.04329 9.01541L7.41306 8.7865L7.30741 8.38151C6.77696 6.33896 6.68452 4.48349 7.23698 3.2223C7.78723 1.96552 8.90976 1.17535 11.2516 1.12693ZM18.5767 1.69039C18.5833 1.69039 18.5877 1.69039 18.5943 1.69039C19.5319 1.69479 20.1174 1.97212 20.2671 2.23624L20.4079 2.46515L20.672 2.51798C21.3125 2.60602 21.6691 2.83712 21.9222 3.18709C22.1753 3.53705 22.3184 4.03668 22.3624 4.59575C22.4505 5.71387 22.1247 7.04549 21.9222 7.65957L21.7814 8.08217L22.1687 8.31108C22.1181 8.28026 22.3184 8.38811 22.2744 8.75128C22.2194 9.2069 22.1005 9.4336 22.0279 9.52605C21.9552 9.61849 21.9376 9.59868 21.9574 9.59648L21.482 9.63169L21.4468 10.0895C21.405 10.4857 21.2289 10.9721 21.0418 11.3573C20.9472 11.5488 20.8613 11.7183 20.7777 11.8327C20.7271 11.901 20.6919 11.9516 20.672 11.9736H20.6544C20.6522 11.9758 20.6544 11.9912 20.6544 11.9912L20.3551 12.1321V12.4666C20.3551 13.1511 20.3353 13.7256 20.4079 14.5268V14.5972L20.4431 14.6676C20.7271 15.427 21.383 15.8848 22.0807 16.2348C22.7784 16.5847 23.5598 16.8489 24.2993 17.168C25.0389 17.4872 25.7102 17.8503 26.201 18.3478C26.5708 18.7241 26.8019 19.2238 26.9406 19.8269H20.8129C20.1196 19.2392 19.3184 18.832 18.5238 18.4886C17.5862 18.0836 16.6662 17.7535 15.953 17.3969C15.2685 17.0536 14.8371 16.7058 14.65 16.27C14.5884 15.5282 14.5928 14.9472 14.5972 14.245C14.6698 14.1658 14.7755 14.1108 14.8437 14.0161C14.9978 13.8026 15.1453 13.5429 15.2839 13.259C15.5238 12.766 15.6977 12.1739 15.7946 11.5862C15.9707 11.4938 16.1599 11.4718 16.3052 11.2869C16.5759 10.9413 16.7674 10.4483 16.8511 9.75495C16.9259 9.13867 16.719 8.73147 16.4637 8.41673C16.7388 7.52311 17.091 6.07924 16.9743 4.59575C16.9105 3.78577 16.7036 2.97799 16.2172 2.30668C16.215 2.30227 16.2194 2.29347 16.2172 2.28907C16.7476 1.9369 17.5026 1.7124 18.5767 1.69039Z" fill="#B13957"/>
</svg>
