<svg width="16" height="24" viewBox="0 0 16 24" fill="none" xmlns="http://www.w3.org/2000/svg">
<path d="M8.00065 0C3.58037 0 0 3.58037 0 8.00065C0 11.6552 1.92984 15.5833 3.82844 18.6265C5.72703 21.6697 7.62562 23.8301 7.62562 23.8301C7.72133 23.9375 7.85806 24 8.00065 24C8.14324 24 8.27997 23.9375 8.37568 23.8301C8.37568 23.8301 10.2762 21.6248 12.1729 18.564C14.0695 15.5032 16.0013 11.5849 16.0013 8.00065C16.0013 3.58037 12.4209 0 8.00065 0ZM8.00065 1.00008C11.8818 1.00008 15.0012 4.11948 15.0012 8.00065C15.0012 11.2177 13.1827 15.0422 11.329 18.0327C9.77619 20.5388 8.46163 22.1522 8.00065 22.705C7.53577 22.1561 6.22121 20.5778 4.67226 18.0952C2.82054 15.1262 1.00008 11.2958 1.00008 8.00065C1.00008 4.11948 4.11948 1.00008 8.00065 1.00008ZM8.00065 5.00041C6.07276 5.00041 4.50037 6.5728 4.50037 8.50069C4.50037 10.4286 6.07276 12.001 8.00065 12.001C9.92854 12.001 11.5009 10.4286 11.5009 8.50069C11.5009 6.5728 9.92854 5.00041 8.00065 5.00041ZM8.00065 6.00049C9.38748 6.00049 10.5009 7.11386 10.5009 8.50069C10.5009 9.88752 9.38748 11.0009 8.00065 11.0009C6.61382 11.0009 5.50045 9.88752 5.50045 8.50069C5.50045 7.11386 6.61382 6.00049 8.00065 6.00049Z" fill="#B13957"/>
</svg>
