<svg width="20" height="22" viewBox="0 0 20 22" fill="none" xmlns="http://www.w3.org/2000/svg">
<path d="M0.900046 20.5433C0.899103 20.6165 0.912674 20.6892 0.939982 20.7572C0.96738 20.8254 1.00805 20.8874 1.05963 20.9397L1.05963 20.9397C1.11121 20.992 1.17268 21.0336 1.24046 21.0619C1.30822 21.0903 1.38096 21.1049 1.45444 21.1049C1.52792 21.1049 1.60066 21.0903 1.66843 21.0619C1.73621 21.0336 1.79767 20.992 1.84925 20.9397L1.77804 20.8695L19.1894 20.7199C19.2119 20.664 19.223 20.6042 19.2221 20.544H19.3221C19.3221 20.5438 19.3221 20.5435 19.3221 20.5433C19.3218 16.4231 16.6088 12.9292 12.8737 11.7542C14.6681 10.7728 15.8882 8.86648 15.8882 6.68078C15.8882 3.49572 13.2973 0.904883 10.1122 0.904883C6.92714 0.904883 4.33625 3.49572 4.33625 6.68078C4.33625 8.86644 5.55635 10.7728 7.35065 11.7542C3.61505 12.9291 0.900356 16.423 0.900046 20.5433ZM0.900046 20.5433C0.900049 20.5431 0.900052 20.5428 0.900056 20.5426L1.00005 20.544H0.900045C0.900045 20.5438 0.900046 20.5435 0.900046 20.5433ZM10.1122 2.01367C12.696 2.01367 14.7794 4.0971 14.7794 6.68078C14.7794 9.15151 12.8738 11.1666 10.4482 11.3381C10.3368 11.3341 10.2248 11.3319 10.1122 11.3319C9.99968 11.3319 9.8877 11.3341 9.77632 11.3381C7.35067 11.1666 5.44504 9.15153 5.44504 6.68078C5.44504 4.0971 7.5285 2.01367 10.1122 2.01367Z" fill="#B03A57" stroke="#B03A57" stroke-width="0.2"/>
</svg>
