<svg width="24" height="22" viewBox="0 0 24 22" fill="none" xmlns="http://www.w3.org/2000/svg">
<path d="M11.9259 20.9418L11.9258 20.9417L2.62437 11.2868L2.69639 11.2174L2.62437 11.2868C0.326556 8.90146 0.32384 5.07316 2.62444 2.68962M11.9259 20.9418L2.62444 2.68962M11.9259 20.9418C11.9758 20.9934 12.0355 21.0345 12.1017 21.0625C12.1678 21.0905 12.2388 21.1049 12.3105 21.1049C12.3823 21.1049 12.4533 21.0905 12.5194 21.0625C12.5855 21.0345 12.6453 20.9934 12.6952 20.9418L12.6953 20.9417C14.2467 19.3343 15.7963 17.7277 17.3459 16.1211L17.3556 16.1111C18.902 14.5078 20.4484 12.9045 21.9966 11.3004C24.2971 8.91694 24.2971 5.08672 21.9966 2.70324L21.9247 2.77269L21.9966 2.70324C19.6942 0.317852 15.9419 0.317729 13.6395 2.70301C13.6394 2.70309 13.6393 2.70316 13.6392 2.70324L12.3109 4.07029L10.9819 2.68971L10.9818 2.68962C9.83082 1.49712 8.3164 0.904883 6.80314 0.904883C5.28984 0.904883 3.77541 1.49712 2.62444 2.68962M11.9259 20.9418L2.62444 2.68962M11.9254 5.22145L11.9259 5.22193C11.9758 5.2735 12.0356 5.31454 12.1017 5.34255C12.1677 5.37057 12.2388 5.38499 12.3105 5.38499C12.3823 5.38499 12.4533 5.37057 12.5194 5.34255C12.5855 5.31454 12.6453 5.2735 12.6952 5.22193L12.6954 5.22172L14.4087 3.44047C16.3083 1.47228 19.3276 1.47233 21.2272 3.44047C23.1287 5.4106 23.1287 8.59305 21.2272 10.5632C19.7281 12.1164 18.2305 13.6685 16.7329 15.2207L16.7309 15.2228C15.2579 16.7494 13.785 18.276 12.3106 19.8036L3.39394 10.5497C1.49372 8.57717 1.49238 5.39688 3.39387 3.42685L3.39388 3.42684C4.34402 2.44241 5.57465 1.96157 6.80314 1.96162C8.03152 1.96162 9.26205 2.44236 10.2123 3.4267C10.2123 3.42675 10.2124 3.4268 10.2124 3.42685L11.9254 5.22145Z" fill="#272727" stroke="#272727" stroke-width="0.2"/>
</svg>
