<svg width="29" height="29" viewBox="0 0 29 29" fill="none" xmlns="http://www.w3.org/2000/svg">
<path d="M10.5998 18.6839C10.5174 18.6839 10.4473 18.6588 10.3896 18.6086C10.3402 18.5501 10.3154 18.479 10.3154 18.3954V12.4505C10.3154 12.3669 10.3402 12.3 10.3896 12.2499C10.4473 12.1913 10.5174 12.1621 10.5998 12.1621H11.1192C11.2016 12.1621 11.2676 12.1913 11.317 12.2499C11.3665 12.3 11.3912 12.3669 11.3912 12.4505V12.877C11.8364 12.3168 12.4381 12.0366 13.1965 12.0366C14.1033 12.0366 14.7463 12.4213 15.1255 13.1905C15.3233 12.8393 15.6036 12.5592 15.9663 12.3502C16.3373 12.1412 16.7495 12.0366 17.2029 12.0366C17.8788 12.0366 18.4311 12.2708 18.8598 12.739C19.2885 13.2072 19.5028 13.8845 19.5028 14.7708V18.3954C19.5028 18.479 19.4739 18.5501 19.4162 18.6086C19.3668 18.6588 19.3008 18.6839 19.2184 18.6839H18.6867C18.6042 18.6839 18.5342 18.6588 18.4765 18.6086C18.427 18.5501 18.4023 18.479 18.4023 18.3954V14.8837C18.4023 14.2148 18.2663 13.7382 17.9942 13.4539C17.7222 13.1612 17.3636 13.0149 16.9185 13.0149C16.5228 13.0149 16.1807 13.1654 15.8921 13.4664C15.6119 13.7591 15.4717 14.2315 15.4717 14.8837V18.3954C15.4717 18.479 15.4429 18.5501 15.3852 18.6086C15.3357 18.6588 15.2698 18.6839 15.1873 18.6839H14.6433C14.5608 18.6839 14.4908 18.6588 14.433 18.6086C14.3836 18.5501 14.3589 18.479 14.3589 18.3954V14.8837C14.3589 14.2231 14.2146 13.7465 13.9261 13.4539C13.6458 13.1612 13.2954 13.0149 12.875 13.0149C12.4793 13.0149 12.1372 13.1612 11.8487 13.4539C11.5684 13.7465 11.4283 14.219 11.4283 14.8711V18.3954C11.4283 18.479 11.3994 18.5501 11.3417 18.6086C11.2923 18.6588 11.2263 18.6839 11.1439 18.6839H10.5998Z" fill="#B13957"/>
<path d="M21.0076 14.2942C20.9251 14.2942 20.8592 14.2691 20.8097 14.219C20.7603 14.1688 20.7355 14.1019 20.7355 14.0183V13.7549C20.7355 13.688 20.7561 13.6253 20.7974 13.5668C20.8386 13.4999 20.9169 13.4204 21.0323 13.3285L21.6011 12.9146C22.038 12.6052 22.3554 12.3711 22.5532 12.2122C22.7511 12.045 22.8995 11.8861 22.9984 11.7356C23.1055 11.5851 23.1591 11.4221 23.1591 11.2465C23.1591 11.0542 23.0891 10.9037 22.9489 10.795C22.817 10.6779 22.6521 10.6194 22.4543 10.6194C22.2729 10.6194 22.1287 10.6487 22.0215 10.7072C21.9226 10.7657 21.8567 10.8201 21.8237 10.8702C21.799 10.912 21.7577 10.9915 21.7 11.1085C21.6506 11.2005 21.6052 11.2632 21.564 11.2967C21.5228 11.3218 21.4692 11.3343 21.4033 11.3343H21.0694C20.921 11.3343 20.8468 11.2632 20.8468 11.1211C20.8468 10.9037 20.921 10.6988 21.0694 10.5065C21.2178 10.3059 21.4115 10.147 21.6506 10.0299C21.8979 9.90451 22.1658 9.8418 22.4543 9.8418C22.9242 9.8418 23.3034 9.97976 23.5919 10.2557C23.8804 10.5232 24.0247 10.8493 24.0247 11.234C24.0247 11.5266 23.9587 11.7858 23.8268 12.0116C23.7032 12.229 23.5136 12.4464 23.258 12.6637C23.0107 12.8728 22.6439 13.1487 22.1575 13.4915H23.9381C24.0206 13.4915 24.0865 13.5166 24.136 13.5668C24.1854 13.6169 24.2102 13.6838 24.2102 13.7674V14.0183C24.2102 14.1019 24.1854 14.1688 24.136 14.219C24.0865 14.2691 24.0206 14.2942 23.9381 14.2942H21.0076Z" fill="#B13957"/>
<path d="M4.35355 4.43551C4.15829 4.24025 3.84171 4.24025 3.64645 4.43551L0.464466 7.61749C0.269204 7.81275 0.269204 8.12933 0.464466 8.3246C0.659728 8.51986 0.976311 8.51986 1.17157 8.3246L4 5.49617L6.82843 8.3246C7.02369 8.51986 7.34027 8.51986 7.53553 8.3246C7.7308 8.12933 7.7308 7.81275 7.53553 7.61749L4.35355 4.43551ZM25.8272 25.3531C26.0225 25.1579 26.0225 24.8413 25.8272 24.646L22.6453 21.4641C22.45 21.2688 22.1334 21.2688 21.9382 21.4641C21.7429 21.6593 21.7429 21.9759 21.9382 22.1712L24.7666 24.9996L21.9382 27.828C21.7429 28.0233 21.7429 28.3399 21.9382 28.5351C22.1334 28.7304 22.45 28.7304 22.6453 28.5351L25.8272 25.3531ZM3.5 4.78906V20.9996H4.5V4.78906H3.5ZM8 25.4996H25.4737V24.4996H8V25.4996ZM3.5 20.9996C3.5 23.4849 5.51472 25.4996 8 25.4996V24.4996C6.067 24.4996 4.5 22.9326 4.5 20.9996H3.5Z" fill="#B13957"/>
<path d="M27.9997 17.4211V3C27.9997 1.89543 27.1043 1 25.9997 1H12.8418" stroke="#B13957" stroke-linecap="round"/>
</svg>
