<svg width="24" height="20" viewBox="0 0 24 20" fill="none" xmlns="http://www.w3.org/2000/svg">
<path d="M22.5 16.8799C22.5 17.0456 22.4342 17.2046 22.3169 17.3218C22.1997 17.439 22.0408 17.5049 21.875 17.5049H12.5V18.7549H21.875C22.3723 18.7549 22.8492 18.5573 23.2008 18.2057C23.5525 17.8541 23.75 17.3772 23.75 16.8799V4.37988H22.5V16.8799Z" fill="#272727"/>
<path d="M0.625001 20.0049C0.765809 20.0031 0.902066 19.9548 1.0125 19.8674L7.025 15.1424C7.13339 15.0514 7.27099 15.0025 7.4125 15.0049H18.125C18.6223 15.0049 19.0992 14.8073 19.4508 14.4557C19.8025 14.1041 20 13.6272 20 13.1299V1.87988C20 1.3826 19.8025 0.905688 19.4508 0.554057C19.0992 0.202427 18.6223 0.00488281 18.125 0.00488281H1.875C1.37772 0.00488281 0.900807 0.202427 0.549176 0.554057C0.197545 0.905688 1.25202e-06 1.3826 1.25202e-06 1.87988V19.3799C-0.000233169 19.497 0.0324556 19.6119 0.0943396 19.7113C0.156224 19.8108 0.244812 19.8908 0.350001 19.9424C0.436794 19.9807 0.530168 20.0019 0.625001 20.0049ZM1.25 11.5174V1.87988C1.25 1.71412 1.31585 1.55515 1.43306 1.43794C1.55027 1.32073 1.70924 1.25488 1.875 1.25488H18.125C18.2908 1.25488 18.4497 1.32073 18.5669 1.43794C18.6842 1.55515 18.75 1.71412 18.75 1.87988V13.1299C18.75 13.2956 18.6842 13.4546 18.5669 13.5718C18.4497 13.689 18.2908 13.7549 18.125 13.7549H7.4125C6.99073 13.7518 6.58057 13.8929 6.25 14.1549L1.25 18.0924V11.5174Z" fill="#272727"/>
<path d="M5 8.75488C5.69036 8.75488 6.25 8.19524 6.25 7.50488C6.25 6.81453 5.69036 6.25488 5 6.25488C4.30964 6.25488 3.75 6.81453 3.75 7.50488C3.75 8.19524 4.30964 8.75488 5 8.75488Z" fill="#272727"/>
<path d="M10 8.75488C10.6904 8.75488 11.25 8.19524 11.25 7.50488C11.25 6.81453 10.6904 6.25488 10 6.25488C9.30964 6.25488 8.75 6.81453 8.75 7.50488C8.75 8.19524 9.30964 8.75488 10 8.75488Z" fill="#272727"/>
<path d="M15 8.75488C15.6904 8.75488 16.25 8.19524 16.25 7.50488C16.25 6.81453 15.6904 6.25488 15 6.25488C14.3096 6.25488 13.75 6.81453 13.75 7.50488C13.75 8.19524 14.3096 8.75488 15 8.75488Z" fill="#272727"/>
</svg>
