<svg width="16" height="16" viewBox="0 0 16 16" fill="none" xmlns="http://www.w3.org/2000/svg">
<path d="M15.7003 2.70441L13.2756 0.279767C12.9026 -0.0932556 12.2365 -0.0932556 11.8634 0.279767L0.592839 11.577C0.512906 11.657 0.459617 11.7635 0.432973 11.8968L0.00666111 15.3872C-0.0199834 15.547 0.0333057 15.7069 0.166528 15.8401C0.273106 15.9467 0.406328 16 0.53955 16C0.566195 16 0.592839 16 0.592839 16L4.08326 15.5737C4.18984 15.547 4.32306 15.4938 4.403 15.4138L15.7003 4.11657C15.8868 3.93006 15.9933 3.69026 15.9933 3.42381C15.9933 3.15737 15.8868 2.89092 15.7003 2.70441ZM3.79017 14.5346L1.15237 14.8543L1.47211 12.2165L11.0641 2.62448L13.3822 4.94255L3.79017 14.5346ZM14.1282 4.16986L11.8102 1.87843L12.5828 1.10575L14.9009 3.42381L14.1282 4.16986Z" fill="#ACACAC"/>
</svg>
