<svg width="40" height="40" viewBox="0 0 40 40" fill="none" xmlns="http://www.w3.org/2000/svg">
<path d="M40 34.4444C40 37.5556 37.5556 40 34.4444 40H5.55556C2.44444 40 0 37.5556 0 34.4444V5.55556C0 2.44444 2.44444 0 5.55556 0H34.4444C37.5556 0 40 2.44444 40 5.55556V34.4444Z" fill="#E9E9E9"/>
<path d="M23.2224 27.111C24.889 26.7777 26.4446 26.111 27.7779 25.2221C28.889 24.5554 29.2224 23.111 28.5557 21.9999C27.889 20.8888 26.4446 20.5554 25.3335 21.2221C22.1113 23.2221 17.889 23.2221 14.6668 21.2221C13.5557 20.5554 12.1113 20.8888 11.4446 21.9999C10.7779 23.111 11.1113 24.5554 12.2224 25.2221C13.6668 26.111 15.2224 26.7777 16.7779 27.111L12.3335 31.5554C11.4446 32.4443 11.4446 33.8888 12.3335 34.8888C12.7779 35.3332 13.3335 35.5554 14.0002 35.5554C14.5557 35.5554 15.2224 35.3332 15.6668 34.8888L20.0002 30.5554L24.3335 34.8888C25.2224 35.7777 26.6668 35.7777 27.6668 34.8888C28.5557 33.9999 28.5557 32.5554 27.6668 31.5554L23.2224 27.111ZM20.0002 4.44434C15.6668 4.44434 12.2224 7.88878 12.2224 12.2221C12.2224 16.5554 15.6668 19.9999 20.0002 19.9999C24.3335 19.9999 27.7779 16.5554 27.7779 12.2221C27.7779 7.88878 24.3335 4.44434 20.0002 4.44434ZM20.0002 15.5554C18.1113 15.5554 16.6668 14.111 16.6668 12.2221C16.6668 10.3332 18.1113 8.88878 20.0002 8.88878C21.889 8.88878 23.3335 10.3332 23.3335 12.2221C23.3335 14.111 21.889 15.5554 20.0002 15.5554Z" fill="#B9B9B9"/>
</svg>
