<svg width="30" height="16" viewBox="0 0 30 16" fill="none" xmlns="http://www.w3.org/2000/svg">
<path d="M14.7668 0C6.5625 0 0.151442 7.59615 0.151442 7.59615C-0.0504808 7.82692 -0.0504808 8.17308 0.151442 8.40385C0.151442 8.40385 6.5625 16 14.7668 16C22.9712 16 29.3822 8.40385 29.3822 8.40385C29.5841 8.17308 29.5841 7.82692 29.3822 7.59615C29.3822 7.59615 22.9712 0 14.7668 0ZM14.7668 1.23077C16.3846 1.23077 17.9303 1.5649 19.363 2.07692C20.3245 3.16346 20.9207 4.58414 20.9207 6.15385C20.9207 9.5601 18.1731 12.3077 14.7668 12.3077C11.3606 12.3077 8.61298 9.5601 8.61298 6.15385C8.61298 4.58414 9.1899 3.16346 10.1514 2.07692C11.5889 1.5625 13.1442 1.23077 14.7668 1.23077ZM8.11298 2.98077C7.65144 3.94231 7.38221 5.01923 7.38221 6.15385C7.38221 10.226 10.6947 13.5385 14.7668 13.5385C18.8389 13.5385 22.1514 10.226 22.1514 6.15385C22.1514 5.02404 21.8942 3.94231 21.4399 2.98077C24.9159 4.7476 27.4159 7.3101 28.0553 8C27.0553 9.08173 21.5192 14.7692 14.7668 14.7692C8.01442 14.7692 2.47837 9.08173 1.47837 8C2.11779 7.30769 4.62981 4.7476 8.11298 2.98077ZM14.7668 3.07692C13.0673 3.07692 11.6899 4.45433 11.6899 6.15385C11.6899 7.85337 13.0673 9.23077 14.7668 9.23077C16.4663 9.23077 17.8437 7.85337 17.8437 6.15385C17.8437 4.45433 16.4663 3.07692 14.7668 3.07692Z" fill="#ACACAC"/>
</svg>
