<svg width="23" height="22" viewBox="0 0 23 22" fill="none" xmlns="http://www.w3.org/2000/svg">
<path d="M18.3423 21.1535L18.341 21.1537C18.2584 21.1599 18.1756 21.142 18.1032 21.1017L18.3423 21.1535ZM18.3423 21.1535C18.4002 21.1486 18.4566 21.1318 18.5077 21.1041C18.5588 21.0764 18.6037 21.0384 18.6392 20.9922C18.6747 20.946 18.6999 20.8927 18.713 20.8359C18.7261 20.7791 18.7267 20.7201 18.7148 20.663L18.7147 20.6627L17.2563 13.7628L22.6084 9.00803L22.609 9.00752C22.6678 8.95472 22.7103 8.88616 22.7309 8.80965C22.7515 8.73313 22.749 8.65241 22.7239 8.57726L22.5816 8.62481L22.7239 8.57726C22.6988 8.50217 22.6523 8.43623 22.5905 8.38695C22.5287 8.33772 22.4542 8.30707 22.3758 8.29813L22.3751 8.29805L15.1657 7.51074L12.1756 1.092L12.1756 1.09199L12.175 1.0908C12.141 1.01954 12.0871 0.959845 12.0202 0.918279C11.9533 0.876726 11.876 0.854883 11.7974 0.854883C11.7187 0.854883 11.6414 0.876726 11.5745 0.918279C11.5076 0.959845 11.4537 1.01954 11.4197 1.0908L11.4192 1.09199L8.42903 7.51074L1.21958 8.29805L1.21886 8.29813C1.14047 8.30708 1.06595 8.33775 1.00421 8.38697C0.942422 8.43624 0.895905 8.50215 0.870806 8.57727C0.845695 8.65241 0.843251 8.73313 0.863816 8.80966C0.884374 8.88616 0.926905 8.95472 0.985729 9.00752L0.986298 9.00803L6.33837 13.7628L4.88001 20.6627L4.87973 20.664C4.8641 20.7415 4.87162 20.8217 4.90124 20.895C4.93084 20.9682 4.98111 21.031 5.04551 21.0765C5.10989 21.1219 5.18584 21.1481 5.26436 21.1527C5.34287 21.1572 5.42133 21.1398 5.49054 21.1022L5.49151 21.1017L11.7973 17.6156L18.1027 21.1014L18.3423 21.1535ZM17.7113 19.9512L12.0007 16.7931L12 16.7928C11.9379 16.7588 11.8681 16.7411 11.7974 16.7411C11.7266 16.7411 11.6568 16.7588 11.5947 16.7927L11.594 16.7931L5.88338 19.9512L7.20317 13.7001C7.20324 13.6998 7.20331 13.6994 7.20339 13.6991C7.21896 13.6287 7.21532 13.5554 7.19288 13.4868C7.17036 13.418 7.1298 13.3566 7.07575 13.3085L7.07563 13.3084L2.23444 9.01205L8.7532 8.30087L8.75398 8.30078C8.82427 8.29274 8.89158 8.26723 8.9494 8.22633C9.00724 8.18542 9.05376 8.13039 9.08405 8.0662L9.08434 8.06557L11.7973 2.24696L14.5103 8.06557L14.5106 8.0662C14.5409 8.13039 14.5875 8.18542 14.6453 8.22633C14.7031 8.26723 14.7704 8.29274 14.8407 8.30079L14.8415 8.30087L21.3603 9.01205L16.5191 13.3084L16.519 13.3085C16.4649 13.3565 16.4244 13.418 16.4018 13.4868C16.3794 13.5554 16.3757 13.6286 16.3913 13.6991C16.3914 13.6994 16.3914 13.6998 16.3915 13.7001L17.7113 19.9512Z" fill="#272727" stroke="#272727" stroke-width="0.3"/>
</svg>
