<svg width="23" height="24" viewBox="0 0 23 24" fill="none" xmlns="http://www.w3.org/2000/svg">
<path d="M11.04 0.959961C4.94846 0.959961 0 5.90842 0 12C0 18.0915 4.94846 23.04 11.04 23.04C17.1315 23.04 22.08 18.0915 22.08 12C22.08 5.90842 17.1315 0.959961 11.04 0.959961ZM11.04 1.91996C16.6127 1.91996 21.12 6.42725 21.12 12C21.12 17.5727 16.6127 22.08 11.04 22.08C5.46728 22.08 0.96 17.5727 0.96 12C0.96 6.42725 5.46728 1.91996 11.04 1.91996ZM11.0325 3.3534C10.9054 3.35539 10.7842 3.40773 10.6956 3.49896C10.607 3.59018 10.5583 3.71282 10.56 3.83996V10.6434C10.2794 10.7426 10.0365 10.9263 9.86456 11.1692C9.69265 11.4121 9.60022 11.7024 9.6 12C9.60044 12.2145 9.6488 12.4262 9.74156 12.6196L6.86062 15.5006C6.81456 15.5448 6.77778 15.5978 6.75244 15.6564C6.7271 15.715 6.71372 15.7781 6.71307 15.842C6.71242 15.9058 6.72452 15.9692 6.74866 16.0283C6.77279 16.0874 6.80849 16.1412 6.85365 16.1863C6.8988 16.2315 6.95252 16.2672 7.01164 16.2913C7.07077 16.3154 7.13412 16.3275 7.19798 16.3269C7.26184 16.3262 7.32492 16.3129 7.38355 16.2875C7.44217 16.2622 7.49515 16.2254 7.53937 16.1793L10.4203 13.2984C10.6138 13.3912 10.8255 13.4395 11.04 13.44C11.4219 13.44 11.7882 13.2882 12.0582 13.0182C12.3283 12.7481 12.48 12.3819 12.48 12C12.4796 11.7025 12.3871 11.4125 12.2152 11.1698C12.0433 10.927 11.8004 10.7435 11.52 10.6443V3.83996C11.5209 3.77574 11.5089 3.712 11.4847 3.65251C11.4605 3.59302 11.4246 3.53899 11.3791 3.49362C11.3337 3.44825 11.2796 3.41246 11.22 3.38837C11.1605 3.36429 11.0967 3.3524 11.0325 3.3534Z" fill="#B13957"/>
</svg>
